<?xml version="1.0" encoding="UTF-8"?>
<svg version="1.1" xmlns="http://www.w3.org/2000/svg" width="575" height="575">
	<path d="M0 0 C189.75 0 379.5 0 575 0 C575 189.75 575 379.5 575 575 C385.25 575 195.5 575 0 575 C0 385.25 0 195.5 0 0 Z " fill="#FEFEFE" transform="translate(0,0)"/>
	<path d="M0 0 C189.75 0 379.5 0 575 0 C575 31.02 575 62.04 575 94 C385.25 94 195.5 94 0 94 C0 62.98 0 31.96 0 0 Z " fill="#AC0101" transform="translate(0,481)"/>
	<path d="M0 0 C1.65962769 0.11988281 1.65962769 0.11988281 3.3527832 0.2421875 C5.08878784 0.30599609 5.08878784 0.30599609 6.85986328 0.37109375 C9.33108022 0.46632496 11.80152617 0.58369168 14.27075195 0.72119141 C18.30845039 0.93735204 22.34250377 1.07707443 26.3840332 1.19140625 C33.31308177 1.39256159 40.23916961 1.64504232 47.1652832 1.9296875 C43.89847479 6.37818055 40.61608673 10.69539594 36.8527832 14.7421875 C33.67245079 18.22084255 30.627962 21.76382491 27.6652832 25.4296875 C24.7571494 29.024464 21.77986989 32.51229378 18.6652832 35.9296875 C15.64245899 39.24958236 12.74016159 42.62732862 9.9152832 46.1171875 C5.75933637 51.25057828 1.45809611 56.24115161 -2.87866211 61.22119141 C-9.96914016 69.36880282 -16.92631519 77.62726914 -23.8347168 85.9296875 C-22.38303508 90.23713653 -20.07953665 93.48277214 -17.2722168 96.9921875 C-16.35619794 98.15964318 -15.44084552 99.32762204 -14.52612305 100.49609375 C-13.83993896 101.36838623 -13.83993896 101.36838623 -13.13989258 102.25830078 C-11.2938996 104.62224914 -9.5009744 107.02408721 -7.7097168 109.4296875 C0.81829306 120.83571134 9.4728217 132.14860802 18.1652832 143.4296875 C27.41927908 155.44583729 36.6705816 167.46755215 45.6652832 179.6796875 C46.12797607 180.30536621 46.59066895 180.93104492 47.06738281 181.57568359 C50.1652832 185.80793295 50.1652832 185.80793295 50.1652832 186.9296875 C42.47411349 187.39702966 34.78443676 187.75031166 27.08222866 187.96593094 C23.50262111 188.06956494 19.93283242 188.20936425 16.35888672 188.43847656 C-6.56633982 189.86951431 -6.56633982 189.86951431 -13.54611206 185.06222534 C-18.1432159 180.49450976 -21.31558684 175.27944102 -24.33578491 169.58525085 C-26.88309506 165.07234166 -30.09690732 161.07467377 -33.2722168 156.9921875 C-34.51190028 155.34447908 -35.74919504 153.69496836 -36.9831543 152.04296875 C-41.75249547 145.69986823 -46.56384229 139.38883865 -51.38134766 133.08227539 C-52.00662354 132.26364014 -52.63189941 131.44500488 -53.27612305 130.6015625 C-53.87440918 129.81974609 -54.47269531 129.03792969 -55.08911133 128.23242188 C-57.29201612 125.32643614 -59.44664213 122.38588433 -61.58837891 119.43457031 C-62.78114626 117.7883054 -62.78114626 117.7883054 -64.8347168 116.9296875 C-65.0409668 117.4659375 -65.2472168 118.0021875 -65.4597168 118.5546875 C-66.8347168 120.9296875 -66.8347168 120.9296875 -69.87036133 123.22119141 C-73.85523371 127.17430584 -73.57930938 131.37850633 -73.66696167 136.75741577 C-73.65786774 138.03887482 -73.6487738 139.32033386 -73.6394043 140.640625 C-73.65066472 141.97728867 -73.66454988 143.31393258 -73.68093872 144.65054321 C-73.71687822 148.15240491 -73.71736328 151.65339187 -73.71026611 155.15539551 C-73.70935117 158.73526155 -73.74191612 162.31481574 -73.7722168 165.89453125 C-73.82912909 172.90693901 -73.83047395 179.91625937 -73.8347168 186.9296875 C-90.0047168 186.9296875 -106.1747168 186.9296875 -122.8347168 186.9296875 C-122.8347168 125.8796875 -122.8347168 64.8296875 -122.8347168 1.9296875 C-106.6647168 1.9296875 -90.4947168 1.9296875 -73.8347168 1.9296875 C-73.5047168 28.6596875 -73.1747168 55.3896875 -72.8347168 82.9296875 C-65.36140103 73.21444451 -65.36140103 73.21444451 -57.8972168 63.4921875 C-54.04024512 58.47108728 -50.13973022 53.48549399 -46.22167969 48.51196289 C-42.40659118 43.66623603 -38.61799085 38.80028048 -34.8347168 33.9296875 C-21.12032879 16.2801098 -21.12032879 16.2801098 -18.25292969 12.7746582 C-16.72977479 10.84731597 -16.72977479 10.84731597 -15.16455078 8.32495117 C-10.74783331 1.87317474 -7.87624354 -0.20402574 0 0 Z " fill="#010A62" transform="translate(353.834716796875,12.0703125)"/>
	<path d="M0 0 C16.83 0 33.66 0 51 0 C49.0431417 7.17514711 47.04466647 13.87889123 44.375 20.75 C40.17228419 31.76725352 36.14237398 42.84206978 32.14459229 53.93496704 C18.42910822 91.99197339 4.41151592 129.93790979 -9.62109375 167.87890625 C-9.92027206 168.68811523 -10.21945038 169.49732422 -10.5276947 170.33105469 C-11.08391124 171.83429444 -11.64110035 173.33717482 -12.19943237 174.83963013 C-12.75075664 176.32740491 -13.29764093 177.81683007 -13.84085083 179.30758667 C-15.89111686 184.89111686 -15.89111686 184.89111686 -17 186 C-18.71865409 186.0935919 -20.44115744 186.11744611 -22.16235352 186.11352539 C-23.26341934 186.11344986 -24.36448517 186.11337433 -25.49891663 186.11329651 C-26.6968132 186.10813522 -27.89470978 186.10297394 -29.12890625 186.09765625 C-30.34827377 186.0962413 -31.5676413 186.09482635 -32.82395935 186.09336853 C-36.7368307 186.08774967 -40.64964581 186.07519396 -44.5625 186.0625 C-47.20768147 186.05748743 -49.85286383 186.0529241 -52.49804688 186.04882812 C-58.99871726 186.03777411 -65.49935461 186.02101764 -72 186 C-75.20178517 178.45703371 -78.2253592 170.88144436 -81.01171875 163.17578125 C-81.37719818 162.17240723 -81.74267761 161.1690332 -82.11923218 160.13525391 C-82.90296459 157.98274677 -83.68546574 155.82979098 -84.46682739 153.67642212 C-86.14585823 149.04935919 -87.83108365 144.42455968 -89.51591492 139.79960632 C-90.38886746 137.40316087 -91.26151531 135.00660441 -92.13386536 132.60993958 C-96.42032738 120.83562746 -100.7381423 109.07293644 -105.0625 97.3125 C-105.80023996 95.30534897 -106.53795152 93.2981875 -107.27563477 91.29101562 C-109.13334504 86.23669052 -110.99151365 81.18253405 -112.84979248 76.12841797 C-116.05494703 67.41080578 -119.25925037 58.69288092 -122.46286011 49.97470093 C-123.5791714 46.93720035 -124.69593825 43.89986758 -125.81274414 40.86254883 C-127.87847564 35.24291157 -129.94040035 29.62188726 -132 24 C-132.3760437 22.97420837 -132.7520874 21.94841675 -133.13952637 20.89154053 C-134.26934508 17.80727213 -135.39675807 14.72213513 -136.5234375 11.63671875 C-136.87274323 10.68368362 -137.22204895 9.7306485 -137.5819397 8.74873352 C-138.05837418 7.4416468 -138.05837418 7.4416468 -138.54443359 6.1081543 C-138.96721085 4.95128365 -138.96721085 4.95128365 -139.39852905 3.77104187 C-140 2 -140 2 -140 1 C-122.84 1 -105.68 1 -88 1 C-81.63613168 18.48601205 -75.53601345 36.04046935 -69.60140991 53.67504883 C-68.16085758 57.95560435 -66.71624468 62.2347825 -65.27075195 66.51367188 C-65.03012874 67.22598843 -64.78950552 67.93830498 -64.54159069 68.67220688 C-64.05869678 70.10169353 -63.57579145 71.53117633 -63.09287453 72.96065521 C-62.38060623 75.06934013 -61.66861407 77.17811809 -60.95671082 79.28692627 C-57.46628934 89.6256975 -53.97090292 99.96274015 -50.4425354 110.28863525 C-49.94269859 111.7525686 -49.44396417 113.21687884 -48.94638062 114.68157959 C-48.28348139 116.63243071 -47.61650303 118.58189442 -46.94921875 120.53125 C-46.59174561 121.57861328 -46.23427246 122.62597656 -45.8659668 123.70507812 C-45.20586044 125.93145141 -45.20586044 125.93145141 -44 127 C-43.74532959 126.22551514 -43.49065918 125.45103027 -43.22827148 124.65307617 C-36.08451114 102.97290558 -28.64624379 81.40404496 -21.09757996 59.86190796 C-18.48182642 52.39116066 -15.88633218 44.91349236 -13.296875 37.43359375 C-12.90609772 36.30511017 -12.51532043 35.17662659 -12.11270142 34.01394653 C-10.5686063 29.55423016 -9.02479574 25.0944176 -7.4833374 20.63378906 C-6.41974081 17.55623724 -5.35453734 14.47924571 -4.2890625 11.40234375 C-3.96999939 10.47739609 -3.65093628 9.55244843 -3.32220459 8.59947205 C-2.88355072 7.33388206 -2.88355072 7.33388206 -2.43603516 6.04272461 C-2.18149567 5.3063829 -1.92695618 4.5700412 -1.66470337 3.81138611 C-1 2 -1 2 0 0 Z " fill="#010A62" transform="translate(154,13)"/>
	<path d="M0 0 C16.5 0 33 0 50 0 C50 48.84 50 97.68 50 148 C77.72 148 105.44 148 134 148 C134 160.21 134 172.42 134 185 C89.78 185 45.56 185 0 185 C0 123.95 0 62.9 0 0 Z " fill="#000962" transform="translate(427,14)"/>
	<path d="M0 0 C16.5 0 33 0 50 0 C50 48.84 50 97.68 50 148 C77.72 148 105.44 148 134 148 C134 160.21 134 172.42 134 185 C89.78 185 45.56 185 0 185 C0 123.95 0 62.9 0 0 Z M1 1 C0.92998473 24.4172509 0.87704856 47.83448616 0.84456348 71.25182056 C0.82908062 82.12437751 0.80796402 92.9968695 0.77368164 103.86938477 C0.7438227 113.34352447 0.72443533 122.81761714 0.71773452 132.29180259 C0.71381631 137.31044217 0.70457859 142.32894718 0.68280983 147.34754372 C0.6625 152.06788516 0.65615501 156.78803615 0.66067696 161.50841713 C0.65984928 163.24389174 0.65385093 164.9793725 0.64238358 166.71480942 C0.62752529 169.07868962 0.63102158 171.44184445 0.63923645 173.80574036 C0.63049793 174.49737253 0.6217594 175.18900469 0.61275607 175.90159541 C0.63850278 178.630018 0.73908303 180.57885541 2.19391632 182.92709351 C4.65471052 184.38893168 6.39862036 184.36910023 9.25810242 184.36076355 C10.89242722 184.36694954 10.89242722 184.36694954 12.55976868 184.3732605 C14.35295784 184.35708176 14.35295784 184.35708176 16.18237305 184.34057617 C17.44102173 184.34101425 18.69967041 184.34145233 19.99645996 184.34190369 C23.44877972 184.34276534 26.90078754 184.32511241 30.35303473 184.30418181 C33.96050423 184.28544318 37.56798068 184.2836668 41.17549133 184.28010559 C48.00720058 184.27077682 54.838766 184.24615188 61.67041188 184.21605712 C69.44782225 184.18253892 77.22523943 184.16603361 85.00270402 184.15097082 C101.00188601 184.11960298 117.00092447 184.06682642 133 184 C133.0246519 179.17619198 133.04283693 174.35242033 133.05493164 169.52856445 C133.05997174 167.88630536 133.06680378 166.24405077 133.07543945 164.60180664 C133.08751926 162.24624521 133.09323139 159.89074291 133.09765625 157.53515625 C133.10281754 156.79660904 133.10797882 156.05806183 133.11329651 155.2971344 C133.1134925 153.53101912 133.06194719 151.76502854 133 150 C130.99257528 147.99257528 126.92910221 148.81494723 124.17553711 148.79467773 C123.35609116 148.78477814 122.5366452 148.77487854 121.69236755 148.76467896 C118.97072283 148.73296945 116.24906061 148.70826938 113.52734375 148.68359375 C111.64546747 148.66303237 109.76359589 148.64203612 107.88172913 148.62062073 C102.91856689 148.56531574 97.9553624 148.51594377 92.99212646 148.46777344 C87.93156149 148.41761978 82.8710582 148.36190176 77.81054688 148.30664062 C67.87375055 148.19895605 57.93690077 148.09753411 48 148 C48.00092179 147.24847688 48.00184359 146.49695375 48.00279331 145.7226572 C48.02484739 127.46300862 48.04141099 109.20336269 48.05181217 90.94370365 C48.05697539 82.11358729 48.06401857 73.28347981 48.07543945 64.45336914 C48.08538551 56.75987935 48.09185324 49.06639599 48.09408849 41.37289995 C48.09539574 37.29670348 48.09848243 33.22052539 48.10573006 29.14433479 C48.11248904 25.31212245 48.11461721 21.47993616 48.11310768 17.64771843 C48.11338406 16.23714939 48.11538991 14.82657953 48.11920547 13.41601562 C48.12414075 11.49834311 48.12239802 9.58065679 48.12025452 7.66297913 C48.12117631 6.58724671 48.1220981 5.5115143 48.12304783 4.40318394 C48.27153631 2.04819505 48.27153631 2.04819505 47 1 C45.55710213 0.90704185 44.10970215 0.88253487 42.66381836 0.88647461 C41.7429393 0.88655014 40.82206024 0.88662567 39.87327576 0.88670349 C38.37172691 0.89444542 38.37172691 0.89444542 36.83984375 0.90234375 C35.31043907 0.90446617 35.31043907 0.90446617 33.75013733 0.90663147 C30.47922893 0.91224903 27.20838787 0.9248045 23.9375 0.9375 C21.72591244 0.94251274 19.51432382 0.94707604 17.30273438 0.95117188 C11.86846643 0.96222416 6.43423803 0.97897937 1 1 Z " fill="#090E46" transform="translate(427,14)"/>
	<path d="M0 0 C15.18 0 30.36 0 46 0 C46 48.84 46 97.68 46 148 C45.34 148 44.68 148 44 148 C43.67 99.82 43.34 51.64 43 2 C28.81 1.67 14.62 1.34 0 1 C0 0.67 0 0.34 0 0 Z " fill="#0C1252" transform="translate(431,14)"/>
	<path d="M0 0 C16.83 0 33.66 0 51 0 C50.34 0.33 49.68 0.66 49 1 C49 1.99 49 2.98 49 4 C48.34 4 47.68 4 47 4 C47 3.34 47 2.68 47 2 C40.78852302 2.11815826 34.57720905 2.24240044 28.3659668 2.37231445 C26.2523938 2.41566064 24.13878586 2.45733594 22.02514648 2.49731445 C18.98931336 2.55502449 15.95365611 2.61871701 12.91796875 2.68359375 C11.97100632 2.70030624 11.02404388 2.71701874 10.04838562 2.73423767 C9.16769913 2.75418289 8.28701263 2.77412811 7.37963867 2.79467773 C6.21714851 2.81799416 6.21714851 2.81799416 5.03117371 2.84178162 C2.79667507 2.93355377 2.79667507 2.93355377 0 4 C-0.103125 5.010625 -0.20625 6.02125 -0.3125 7.0625 C-1.02141853 11.12266978 -2.32554902 14.24922981 -4 18 C-4.74430216 20.31913662 -5.37508941 22.64456777 -6 25 C-6.66 24.67 -7.32 24.34 -8 24 C-5.68879495 15.84501634 -2.86069849 8.00995577 0 0 Z " fill="#1A1E5A" transform="translate(154,13)"/>
	<path d="M0 0 C0.495 0.99 0.495 0.99 1 2 C-2.26999313 3.95110271 -4.62939159 4.22361235 -8.41113281 4.13525391 C-9.49195129 4.11508209 -10.57276978 4.09491028 -11.68634033 4.0741272 C-13.42714874 4.02583267 -13.42714874 4.02583267 -15.203125 3.9765625 C-16.39605164 3.95153656 -17.58897827 3.92651062 -18.8180542 3.90072632 C-22.62899246 3.8185416 -26.4394114 3.72194445 -30.25 3.625 C-32.8333121 3.566759 -35.41664553 3.50945575 -38 3.453125 C-44.333621 3.31296482 -50.66687556 3.16096954 -57 3 C-57 2.34 -57 1.68 -57 1 C-28.785 0.505 -28.785 0.505 0 0 Z " fill="#C5C8DE" transform="translate(404,198)"/>
	<path d="M0 0 C1.60137817 -0.00290039 1.60137817 -0.00290039 3.23510742 -0.00585938 C4.40017822 -0.00134766 5.56524902 0.00316406 6.765625 0.0078125 C8.54900269 0.01071289 8.54900269 0.01071289 10.3684082 0.01367188 C23.9277703 0.0773184 37.46837077 0.57605574 51.015625 1.1328125 C50.06226479 2.44892927 49.10276726 3.76060211 48.140625 5.0703125 C47.60695313 5.80121094 47.07328125 6.53210938 46.5234375 7.28515625 C45.015625 9.1328125 45.015625 9.1328125 43.015625 10.1328125 C43.015625 9.1428125 43.015625 8.1528125 43.015625 7.1328125 C43.675625 7.1328125 44.335625 7.1328125 45.015625 7.1328125 C45.345625 5.4828125 45.675625 3.8328125 46.015625 2.1328125 C20.770625 2.6278125 20.770625 2.6278125 -4.984375 3.1328125 C-5.314375 3.7928125 -5.644375 4.4528125 -5.984375 5.1328125 C-6.644375 5.1328125 -7.304375 5.1328125 -7.984375 5.1328125 C-5.72016314 0.45344131 -5.26406253 0.0063075 0 0 Z " fill="#32386D" transform="translate(349.984375,12.8671875)"/>
	<path d="M0 0 C1.34581972 4.03745915 0.19157055 5.72155625 -1.375 9.625 C-1.83648437 10.79289063 -2.29796875 11.96078125 -2.7734375 13.1640625 C-4 16 -4 16 -5 17 C-6.71865409 17.0935919 -8.44115744 17.11744611 -10.16235352 17.11352539 C-11.26341934 17.11344986 -12.36448517 17.11337433 -13.49891663 17.11329651 C-14.6968132 17.10813522 -15.89470978 17.10297394 -17.12890625 17.09765625 C-18.34827377 17.0962413 -19.5676413 17.09482635 -20.82395935 17.09336853 C-24.7368307 17.08774967 -28.64964581 17.07519396 -32.5625 17.0625 C-35.20768147 17.05748743 -37.85286383 17.0529241 -40.49804688 17.04882812 C-46.99871726 17.03777411 -53.49935461 17.02101764 -60 17 C-60.33 15.68 -60.66 14.36 -61 13 C-56.125 13.875 -56.125 13.875 -55 15 C-53.60384706 15.09803393 -52.20281248 15.12798173 -50.80322266 15.12939453 C-49.91204742 15.13254669 -49.02087219 15.13569885 -48.10269165 15.13894653 C-46.64807022 15.13591019 -46.64807022 15.13591019 -45.1640625 15.1328125 C-44.17377045 15.13376923 -43.18347839 15.13472595 -42.16317749 15.13571167 C-40.06321143 15.13639373 -37.96324328 15.13453769 -35.86328125 15.13037109 C-32.64578508 15.12503447 -29.42842923 15.1303094 -26.2109375 15.13671875 C-24.17447886 15.13605775 -22.1380203 15.13477614 -20.1015625 15.1328125 C-19.13586334 15.13483673 -18.17016418 15.13686096 -17.17520142 15.13894653 C-16.27772186 15.13579437 -15.38024231 15.13264221 -14.45556641 15.12939453 C-13.66582428 15.12859894 -12.87608215 15.12780334 -12.06240845 15.12698364 C-9.23484656 14.95288907 -7.45918414 14.45918414 -5.4375 12.4375 C-3.44859569 9.06501009 -2.82846827 5.82369969 -2 2 C-1.34 2 -0.68 2 0 2 C0 1.34 0 0.68 0 0 Z " fill="#0D1253" transform="translate(142,182)"/>
	<path d="M0 0 C1.03348696 3.10046087 1.17755913 4.05610218 0 7 C-0.99 7.33 -1.98 7.66 -3 8 C-3.62092718 9.81296615 -3.62092718 9.81296615 -4 12 C-4.875 14.6875 -4.875 14.6875 -6 17 C-6.99 17.33 -7.98 17.66 -9 18 C-9.33 18.33 -9.66 18.66 -10 19 C-8.8905928 22.48670834 -7.73662334 25.77484237 -6 29 C-6.66 29.33 -7.32 29.66 -8 30 C-10.31 26.7 -12.62 23.4 -15 20 C-13.46150285 16.92300571 -12.39317097 15.09566228 -10.21484375 12.6171875 C-9.68439453 12.00746094 -9.15394531 11.39773437 -8.60742188 10.76953125 C-8.05634766 10.14433594 -7.50527344 9.51914063 -6.9375 8.875 C-5.8406326 7.62398515 -4.74549606 6.37144995 -3.65234375 5.1171875 C-3.16757568 4.56659668 -2.68280762 4.01600586 -2.18334961 3.44873047 C-0.90366815 1.99022263 -0.90366815 1.99022263 0 0 Z " fill="#ECF0F6" transform="translate(344,80)"/>
	<path d="M0 0 C1.35432675 1.31200404 2.68733482 2.64631404 4 4 C4 4.33 4 4.66 4 5 C-16.13 5 -36.26 5 -57 5 C-56.67 3.68 -56.34 2.36 -56 1 C-54.515 1.99 -54.515 1.99 -53 3 C-50.55631026 3.32783829 -50.55631026 3.32783829 -47.79418945 3.31884766 C-46.20287956 3.34865219 -46.20287956 3.34865219 -44.579422 3.37905884 C-42.86368233 3.39638565 -42.86368233 3.39638565 -41.11328125 3.4140625 C-39.94113571 3.43342865 -38.76899017 3.4527948 -37.56132507 3.4727478 C-33.8117911 3.53260197 -30.06222652 3.57895283 -26.3125 3.625 C-23.77277295 3.66317436 -21.23305893 3.70222576 -18.69335938 3.7421875 C-12.46235503 3.83830835 -6.23127249 3.92333885 0 4 C0 2.68 0 1.36 0 0 Z " fill="#090E48" transform="translate(400,194)"/>
	<path d="M0 0 C17.16 0 34.32 0 52 0 C52.495 1.98 52.495 1.98 53 4 C52.01 3.34 51.02 2.68 50 2 C47.92263083 1.6742279 47.92263083 1.6742279 45.62036133 1.68115234 C44.73967484 1.66128265 43.85898834 1.64141296 42.95161438 1.62094116 C42.00465195 1.60938995 41.05768951 1.59783875 40.08203125 1.5859375 C39.10965012 1.56657135 38.13726898 1.5472052 37.13542175 1.5272522 C34.02787056 1.4674445 30.92028235 1.4210661 27.8125 1.375 C25.706364 1.33682133 23.60024363 1.29776967 21.49414062 1.2578125 C16.32955395 1.16174189 11.16489418 1.07771509 6 1 C5.566875 2.2065625 5.566875 2.2065625 5.125 3.4375 C4 6 4 6 2 7 C1.34 4.69 0.68 2.38 0 0 Z " fill="#0B1152" transform="translate(14,14)"/>
	<path d="M0 0 C0.99 0.33 1.98 0.66 3 1 C1.19117843 3.33627037 -0.62181046 5.66907762 -2.4375 8 C-2.95376953 8.66773437 -3.47003906 9.33546875 -4.00195312 10.0234375 C-5.31130046 11.70077134 -6.65312323 13.35264994 -8 15 C-8.33 15 -8.66 15 -9 15 C-9.48842105 7.67368421 -9.48842105 7.67368421 -7.1875 4.5 C-5 3 -5 3 -2 3 C-1.34 2.01 -0.68 1.02 0 0 Z " fill="#EAEDF6" transform="translate(289,81)"/>
	<path d="M0 0 C0.99 0.33 1.98 0.66 3 1 C0.68982119 7.73802154 -2.98387859 11.30828913 -9 15 C-9.66 14.67 -10.32 14.34 -11 14 C-10.28972656 13.15695313 -9.57945312 12.31390625 -8.84765625 11.4453125 C-7.91916721 10.3386286 -6.99078746 9.23185299 -6.0625 8.125 C-5.59392578 7.56941406 -5.12535156 7.01382813 -4.64257812 6.44140625 C-2.05933481 3.39938165 -2.05933481 3.39938165 0 0 Z " fill="#151960" transform="translate(328,34)"/>
	<path d="M0 0 C4.16574978 3.92204961 7.48411727 8.16876174 10.8125 12.8125 C11.31458984 13.50537109 11.81667969 14.19824219 12.33398438 14.91210938 C13.5599988 16.60517691 14.7805649 18.30218756 16 20 C13 20 13 20 11 19 C9.25160484 16.34243936 8.00872518 14.02617555 7 11 C6.34 11 5.68 11 5 11 C3.15172566 7.3874638 1.44950455 3.7910119 0 0 Z " fill="#181D5C" transform="translate(350,128)"/>
	<path d="M0 0 C1.26574484 3.79723453 0.50371502 5.05161838 -0.87109375 8.76171875 C-1.48500977 10.43911133 -1.48500977 10.43911133 -2.11132812 12.15039062 C-2.7677832 13.90125977 -2.7677832 13.90125977 -3.4375 15.6875 C-3.87126953 16.86634766 -4.30503906 18.04519531 -4.75195312 19.25976562 C-5.82646931 22.17630955 -6.9094431 25.0894241 -8 28 C-8.93818736 24.66558984 -8.90782987 22.63131949 -8.0625 19.25 C-7.86785156 18.45078125 -7.67320312 17.6515625 -7.47265625 16.828125 C-7.31667969 16.22484375 -7.16070312 15.6215625 -7 15 C-6.34 15 -5.68 15 -5 15 C-4.9175 14.195625 -4.835 13.39125 -4.75 12.5625 C-3.79803325 8.04065795 -1.98419821 4.15297299 0 0 Z " fill="#181C5C" transform="translate(196,34)"/>
	<path d="M0 0 C2.93200474 2.85276137 5.64315404 5.65079784 8 9 C7.34 10.32 6.68 11.64 6 13 C6 12.34 6 11.68 6 11 C4.68 11.33 3.36 11.66 2 12 C0.875 8.25 0.875 8.25 2 6 C1.34 5.67 0.68 5.34 0 5 C0 3.35 0 1.7 0 0 Z " fill="#101663" transform="translate(328,99)"/>
	<path d="M0 0 C4.00972202 3.67557852 6.45335415 7.18966896 9 12 C7.35 12.66 5.7 13.32 4 14 C4 12 4 10 4 8 C3.01 7.67 2.02 7.34 1 7 C1.33 6.34 1.66 5.68 2 5 C1.34 5 0.68 5 0 5 C0 3.35 0 1.7 0 0 Z " fill="#E8EAF2" transform="translate(301,143)"/>
	<path d="M0 0 C1.21205531 3.63616593 0.66898648 4.58869753 -0.65234375 8.10546875 C-1.01650391 9.08837891 -1.38066406 10.07128906 -1.75585938 11.08398438 C-2.34077148 12.62022461 -2.34077148 12.62022461 -2.9375 14.1875 C-3.32357422 15.22326172 -3.70964844 16.25902344 -4.10742188 17.32617188 C-5.06342444 19.88731454 -6.02789257 22.44493599 -7 25 C-7.33 25 -7.66 25 -8 25 C-8.20822166 21.25201008 -7.69097712 19.28801107 -6 16 C-5.54671035 14.05733008 -5.09345286 12.11465261 -4.640625 10.171875 C-3.56562368 6.52735834 -1.79079403 3.34281553 0 0 Z " fill="#171B58" transform="translate(161,130)"/>
	<path d="M0 0 C2.31 0.33 4.62 0.66 7 1 C9.27678571 7.96428571 9.27678571 7.96428571 8 12 C6.66382103 10.18959679 5.33112616 8.3766216 4 6.5625 C3.2575 5.55316406 2.515 4.54382813 1.75 3.50390625 C0 1 0 1 0 0 Z " fill="#10155B" transform="translate(334,186)"/>
	<path d="M0 0 C1.32 0.66 2.64 1.32 4 2 C4 3.32 4 4.64 4 6 C-0.75 7 -0.75 7 -3 7 C-4.34882408 7.63474075 -5.6846659 8.29848848 -7 9 C-6.57847656 8.51789063 -6.15695312 8.03578125 -5.72265625 7.5390625 C-5.17480469 6.90742188 -4.62695312 6.27578125 -4.0625 5.625 C-3.51722656 4.99851563 -2.97195313 4.37203125 -2.41015625 3.7265625 C-0.93041376 2.04367666 -0.93041376 2.04367666 0 0 Z " fill="#E3E7F0" transform="translate(289,129)"/>
	<path d="M0 0 C2.00993705 3.01490557 2.72623341 5.2149927 3.625 8.6875 C3.88539062 9.68136719 4.14578125 10.67523438 4.4140625 11.69921875 C4.60742188 12.45847656 4.80078125 13.21773437 5 14 C4.01 13.67 3.02 13.34 2 13 C1.67 13.66 1.34 14.32 1 15 C-0.42705634 9.69276568 -1.4002792 5.46108889 0 0 Z " fill="#161B64" transform="translate(73,36)"/>
	<path d="M0 0 C4.875 0.875 4.875 0.875 6 2 C8.85877909 2.23701239 11.69883297 2.42219182 14.5625 2.5625 C15.36880859 2.60568359 16.17511719 2.64886719 17.00585938 2.69335938 C19.00368805 2.79975262 21.0018207 2.90040888 23 3 C23 3.33 23 3.66 23 4 C15.74 4 8.48 4 1 4 C0.67 2.68 0.34 1.36 0 0 Z " fill="#090E4F" transform="translate(81,195)"/>
	<path d="M0 0 C0.66 0.33 1.32 0.66 2 1 C-0.75 5.875 -0.75 5.875 -3 7 C-3.268125 7.639375 -3.53625 8.27875 -3.8125 8.9375 C-5.39241741 11.68156708 -7.0515206 12.06890124 -10 13 C-7.02480663 8.30834891 -3.68606635 4.15296809 0 0 Z " fill="#131858" transform="translate(339,21)"/>
	<path d="M0 0 C0.97608217 2.92824652 1.08226668 4.95613276 1 8 C0.01 8.33 -0.98 8.66 -2 9 C-2.33 11.31 -2.66 13.62 -3 16 C-3.99 16 -4.98 16 -6 16 C-5.19110952 13.51960151 -4.37808099 11.04069788 -3.5625 8.5625 C-3.33240234 7.85544922 -3.10230469 7.14839844 -2.86523438 6.41992188 C-1.11328125 1.11328125 -1.11328125 1.11328125 0 0 Z " fill="#1C215E" transform="translate(130,83)"/>
	<path d="M0 0 C0.66 0.33 1.32 0.66 2 1 C0.49087042 5.98012761 -2.55661849 9.24259942 -6 13 C-6.33 12.34 -6.66 11.68 -7 11 C-7.99 11.33 -8.98 11.66 -10 12 C-9.67 11.01 -9.34 10.02 -9 9 C-8.01 9.33 -7.02 9.66 -6 10 C-6 9.01 -6 8.02 -6 7 C-5.01 6.67 -4.02 6.34 -3 6 C-2.67 5.34 -2.34 4.68 -2 4 C-1.34 4 -0.68 4 0 4 C0 2.68 0 1.36 0 0 Z " fill="#151A5F" transform="translate(355,63)"/>
	<path d="M0 0 C0.66 0.33 1.32 0.66 2 1 C0.49770909 4.82401322 -1.8011591 6.5208983 -5 9 C-5.99 10.485 -5.99 10.485 -7 12 C-7.66 11.67 -8.32 11.34 -9 11 C-7.68823998 9.35357683 -6.3755713 7.70787757 -5.0625 6.0625 C-4.33160156 5.14597656 -3.60070312 4.22945312 -2.84765625 3.28515625 C-1 1 -1 1 0 0 Z " fill="#101559" transform="translate(314,53)"/>
	<path d="M0 0 C0.66 0.33 1.32 0.66 2 1 C2.99444068 4.34493684 3.10348268 6.68955197 2 10 C-0.66735273 7.51047079 -2.55746343 5.36591866 -4 2 C-2.125 0.9375 -2.125 0.9375 0 0 Z " fill="#0E125E" transform="translate(317,156)"/>
	<path d="M0 0 C0.66 0.33 1.32 0.66 2 1 C1.75 2.875 1.75 2.875 1 5 C-0.31403276 5.70394612 -1.6520257 6.36345658 -3 7 C-4.70496537 8.62746694 -6.37897032 10.28891311 -8 12 C-8 8.03869629 -6.65122875 7.17085599 -4 4.3125 C-3.2575 3.50425781 -2.515 2.69601563 -1.75 1.86328125 C-1.1725 1.24839844 -0.595 0.63351563 0 0 Z " fill="#E3E6F4" transform="translate(371,49)"/>
	<path d="M0 0 C0.66 1.32 1.32 2.64 2 4 C1.67 4.66 1.34 5.32 1 6 C0.01 6.33 -0.98 6.66 -2 7 C-2.66 7.66 -3.32 8.32 -4 9 C-4.99 8.67 -5.98 8.34 -7 8 C-4.69 5.36 -2.38 2.72 0 0 Z " fill="#EAEEF6" transform="translate(394,22)"/>
	<path d="M0 0 C1.25955231 3.77865693 0.48087189 5.03411786 -0.9375 8.6875 C-1.31777344 9.68136719 -1.69804687 10.67523438 -2.08984375 11.69921875 C-2.39019531 12.45847656 -2.69054687 13.21773437 -3 14 C-3.99 13.34 -4.98 12.68 -6 12 C-5.34 11.34 -4.68 10.68 -4 10 C-3.32707499 8.03309626 -3.32707499 8.03309626 -2.875 5.875 C-2.58625 4.59625 -2.2975 3.3175 -2 2 C-1.34 2 -0.68 2 0 2 C0 1.34 0 0.68 0 0 Z " fill="#141858" transform="translate(142,182)"/>
	<path d="M0 0 C2.31 0 4.62 0 7 0 C6.04663979 1.31611677 5.08714226 2.62778961 4.125 3.9375 C3.59132813 4.66839844 3.05765625 5.39929688 2.5078125 6.15234375 C1 8 1 8 -1 9 C-1 8.01 -1 7.02 -1 6 C-0.34 6 0.32 6 1 6 C1.33 4.35 1.66 2.7 2 1 C1.34 0.67 0.68 0.34 0 0 Z " fill="#171A57" transform="translate(394,14)"/>
	<path d="M0 0 C1.74627478 2.61941217 2.38722388 4.03824877 3 7 C2.34 7 1.68 7 1 7 C0.67 7.66 0.34 8.32 0 9 C0 8.01 0 7.02 0 6 C-1.32 6 -2.64 6 -4 6 C-3.67 5.01 -3.34 4.02 -3 3 C-2.34 3 -1.68 3 -1 3 C-0.67 2.01 -0.34 1.02 0 0 Z " fill="#111666" transform="translate(102,121)"/>
	<path d="M0 0 C1.1171875 1.671875 1.1171875 1.671875 2 4 C1.3203125 6.578125 1.3203125 6.578125 0.125 9.25 C-0.26429688 10.14203125 -0.65359375 11.0340625 -1.0546875 11.953125 C-1.36664063 12.62859375 -1.67859375 13.3040625 -2 14 C-2.66 14 -3.32 14 -4 14 C-3.52188823 12.22888156 -3.0424722 10.45811517 -2.5625 8.6875 C-2.29566406 7.70136719 -2.02882812 6.71523438 -1.75390625 5.69921875 C-1.21920575 3.78482474 -0.62855462 1.88566385 0 0 Z " fill="#1F235E" transform="translate(145,38)"/>
	<path d="M0 0 C1.38157895 4.14473684 1.38157895 4.14473684 0 7 C-3.0625 8.25 -3.0625 8.25 -6 9 C-4.16172132 5.84866512 -2.24027294 2.88035092 0 0 Z " fill="#E4E9F3" transform="translate(344,80)"/>
	<path d="M0 0 C4.0084034 2.0042017 5.41409657 3.49055963 8 7 C7.34 7.66 6.68 8.32 6 9 C4.02 6.03 2.04 3.06 0 0 Z " fill="#EDF1FA" transform="translate(379,165)"/>
	<path d="M0 0 C2.96404505 2.80804268 5.44499019 5.18315774 7 9 C5.68 9.33 4.36 9.66 3 10 C1.87119943 6.68885166 0.78697325 3.41021743 0 0 Z " fill="#1B2161" transform="translate(366,149)"/>
	<path d="M0 0 C1 2 1 2 0.3125 4.5625 C-1 7 -1 7 -3.125 7.8125 C-3.74375 7.874375 -4.3625 7.93625 -5 8 C-3.62845496 5.04590299 -2.01136276 2.55991624 0 0 Z " fill="#0F1557" transform="translate(291,82)"/>
	<path d="M0 0 C0.33 1.32 0.66 2.64 1 4 C0.01 4.66 -0.98 5.32 -2 6 C-2.99 4.35 -3.98 2.7 -5 1 C-3 0 -3 0 0 0 Z " fill="#EAEDF0" transform="translate(396,180)"/>
	<path d="M0 0 C2 3 2 3 2 6 C0.02 6.99 0.02 6.99 -2 8 C-2 6.02 -2 4.04 -2 2 C-1.34 2 -0.68 2 0 2 C0 1.34 0 0.68 0 0 Z " fill="#0F1469" transform="translate(106,133)"/>
	<path d="M0 0 C0.99 0.33 1.98 0.66 3 1 C0.03 4.96 0.03 4.96 -3 9 C-3.66 8.34 -4.32 7.68 -5 7 C-4.360625 6.21625 -3.72125 5.4325 -3.0625 4.625 C-1.01857687 2.20460719 -1.01857687 2.20460719 0 0 Z " fill="#E4E9F4" transform="translate(309,55)"/>
	<path d="M0 0 C1.65 1.65 3.3 3.3 5 5 C4.67 5.99 4.34 6.98 4 8 C3.01 7.67 2.02 7.34 1 7 C0.67 4.69 0.34 2.38 0 0 Z " fill="#1D2161" transform="translate(373,158)"/>
	<path d="M0 0 C0.99 0.99 1.98 1.98 3 3 C1.35 4.98 -0.3 6.96 -2 9 C-2.6875 7.1875 -2.6875 7.1875 -3 5 C-1.5625 3.375 -1.5625 3.375 0 2 C0 1.34 0 0.68 0 0 Z " fill="#14185A" transform="translate(333,88)"/>
	<path d="M0 0 C0.99 0.33 1.98 0.66 3 1 C3.73046875 3.06640625 3.73046875 3.06640625 4.1875 5.5625 C4.34605469 6.38878906 4.50460938 7.21507813 4.66796875 8.06640625 C4.77753906 8.70449219 4.88710938 9.34257813 5 10 C4.34 10 3.68 10 3 10 C2.01 6.7 1.02 3.4 0 0 Z " fill="#17195B" transform="translate(42,90)"/>
	<path d="M0 0 C0.33 1.32 0.66 2.64 1 4 C-0.65 5.32 -2.3 6.64 -4 8 C-4.66 7.67 -5.32 7.34 -6 7 C-4.02 4.69 -2.04 2.38 0 0 Z " fill="#DFE3F1" transform="translate(379,39)"/>
	<path d="M0 0 C1.32 1.32 2.64 2.64 4 4 C3.67 4.99 3.34 5.98 3 7 C2.34 7 1.68 7 1 7 C0.34 5.02 -0.32 3.04 -1 1 C-0.67 0.67 -0.34 0.34 0 0 Z " fill="#0B1067" transform="translate(340,19)"/>
	<path d="M0 0 C1.2077558 3.62326739 0.54311128 4.64146369 -1 8 C-1.99 7.67 -2.98 7.34 -4 7 C-4 4 -4 4 -2 1.8125 C-1.34 1.214375 -0.68 0.61625 0 0 Z " fill="#12195E" transform="translate(151,158)"/>
	<path d="M0 0 C0.33 0 0.66 0 1 0 C1.20140476 3.62528568 0.85776765 5.86501708 -1 9 C-1.66 9 -2.32 9 -3 9 C-2.01 6.03 -1.02 3.06 0 0 Z " fill="#1B1F61" transform="translate(120,112)"/>
	<path d="M0 0 C0.66 0 1.32 0 2 0 C1.34 2.97 0.68 5.94 0 9 C-0.66 8.67 -1.32 8.34 -2 8 C-1.34 5.36 -0.68 2.72 0 0 Z " fill="#272A66" transform="translate(148,29)"/>
	<path d="M0 0 C1.24675325 4.98701299 1.24675325 4.98701299 0 8 C-0.99 8.33 -1.98 8.66 -3 9 C-2.01 6.03 -1.02 3.06 0 0 Z " fill="#DADFE9" transform="translate(201,24)"/>
</svg>
